<?xml version="1.0" encoding="UTF-8"?>
<svg id="Layer_2" data-name="Layer 2" xmlns="http://www.w3.org/2000/svg" viewBox="0 0 354.48 75.4">
  <defs>
    <style>
      .cls-1 {
        fill: #fcd7ce;
        stroke: #fcd7ce;
      }

      .cls-1, .cls-2, .cls-3, .cls-4 {
        stroke-miterlimit: 10;
      }

      .cls-2 {
        fill: #f6957e;
        stroke: #f6957e;
      }

      .cls-3 {
        fill: #f9b9af;
        stroke: #f9b9af;
      }

      .cls-4 {
        fill: #f9ad76;
        stroke: #f9ad76;
      }

      .cls-5 {
        opacity: .91;
      }

      .cls-6 {
        fill: #f37353;
        stroke-width: 0px;
      }
    </style>
  </defs>
  <g id="Outline">
    <g>
      <g class="cls-5">
        <path class="cls-6" d="M113.56,28.2h0c-.93-.44-2.04-.04-2.48.89-2.21,4.67-4.45,9.21-6.69,13.61,0,.01-.02.01-.03,0l-11.18-23.35c-.34-.67-1.1-1.15-2.06-1.15h-.47c-1.09,0-2,.81-2.13,1.89l-3.57,29.32v.28c0,1.16.9,2.07,2.15,2.07,1.15,0,2.06-.82,2.2-2.02l2.77-23.04s.02-.02.03,0l9.88,20.21c.43.86,1.1,1.97,2.44,1.97s2.01-1.11,2.44-1.97l7.8-16.11c.45-.93.06-2.06-.88-2.5l-.22-.1Z"/>
        <path class="cls-6" d="M118.17,18.17c1.15,0,2,1.04,2.15,2.19l3.54,29.05v.28c0,1.16-.91,2.07-2.15,2.07s-2.06-.82-2.21-2.02l-3.43-29.03c-.15-1.29.81-2.45,2.1-2.54h0Z"/>
        <path class="cls-6" d="M131.82,17.98c1.98-.38,3.7.92,3.7,2.77,0,1.63-1.34,2.83-3.01,2.83-1.76,0-3.25-1.41-2.98-3.25.17-1.18,1.13-2.12,2.3-2.35ZM134.7,30.93c0-1.24-1.03-2.28-2.34-2.2-1.15.07-2.01,1.1-2.01,2.25v18.39c0,1.15.86,2.18,2.01,2.25,1.31.08,2.34-.96,2.34-2.2v-18.48Z"/>
        <path class="cls-6" d="M186.09,18.73c0-1.24,1.03-2.28,2.34-2.2,1.15.07,2.01,1.1,2.01,2.25v30.58c0,1.15-.86,2.18-2.01,2.25-1.31.08-2.34-.96-2.34-2.2v-1.49c-1.48,2.54-4.69,3.94-7.8,3.94-6.12,0-11.34-4.61-11.34-11.71s5.12-11.67,11.29-11.67c3.25,0,6.36,1.3,7.85,3.84v-13.58ZM178.63,32.75c-4.02,0-7.23,2.88-7.23,7.34s3.21,7.49,7.23,7.49,7.42-2.74,7.42-7.49-3.83-7.34-7.42-7.34Z"/>
        <path class="cls-6" d="M218.63,48.06c.72,1.06.53,2.4-.52,3.12-1.01.77-2.35.48-3.11-.57l-7.84-11.46c-.07-.1-.18-.16-.31-.16h-3.68c-.21,0-.37.17-.37.37v10c0,1.38-1.17,2.47-2.66,2.23-1.06-.17-1.79-1.16-1.79-2.23v-12.31c0-1.19.97-2.16,2.16-2.16h10.09c3.09,0,5.59-2.5,5.59-5.59v-1.15c0-3.09-2.51-5.6-5.6-5.6h-9.91c-1.29,0-2.33-1.04-2.33-2.33h0c0-1.06.86-1.92,1.86-1.92h10.82c6.93,0,9.76,5.19,9.76,10.37,0,4.73-2.28,9.32-8,10.11-.28.04-.43.35-.26.58l6.1,8.7Z"/>
        <path class="cls-6" d="M227.77,17.98c1.98-.38,3.7.92,3.7,2.77,0,1.63-1.34,2.83-3.01,2.83-1.76,0-3.25-1.41-2.98-3.25.17-1.18,1.13-2.12,2.3-2.35ZM230.65,30.93c0-1.24-1.03-2.28-2.34-2.2-1.15.07-2.01,1.1-2.01,2.25v18.39c0,1.15.86,2.18,2.01,2.25,1.31.08,2.34-.96,2.34-2.2v-18.48Z"/>
        <path class="cls-6" d="M248.69,49.55c-.53,1.3-1.39,2.06-2.68,2.06h-.24c-1.29,0-2.2-.77-2.78-2.06l-7.46-18c-.38-1.06.19-2.45,1.39-2.74,1.15-.34,2.2.24,2.68,1.44l6.27,15.99,6.22-15.99c.48-1.2,1.53-1.78,2.68-1.44,1.2.29,1.72,1.68,1.34,2.74l-7.42,18Z"/>
        <path class="cls-6" d="M280.04,41.82h-16.46c.53,3.74,3.45,6.1,7.23,6.1,2.68,0,4.16-.67,5.69-2.35.81-.91,2.06-1.2,2.92-.58.86.67,1.05,1.97.38,2.74-2.15,2.78-5.5,4.13-9.14,4.13-6.36,0-11.44-4.66-11.44-11.76s5.07-11.62,11.44-11.62,11.1,4.51,11.1,11.62c0,1.01-.81,1.73-1.72,1.73ZM277.45,38.42c-.53-3.74-3.21-6-6.79-6s-6.56,2.26-7.08,6h13.88Z"/>
        <path class="cls-6" d="M294.71,27.62c-5.97,1.01-7.83,4.62-7.83,10.94,0,2.31,0,8.01.01,10.52,0,1.15.58,2.28,1.69,2.49,1.45.27,2.64-.83,2.64-2.17.04-4.44.06-6.55.1-10.99.13-4.36,1.6-5.79,4.12-6.24.66-.12,1.83-.31,2.86-.47,1.1-.17,1.87-1.19,1.72-2.3l-.06-.51s0-.02,0-.03c-.14-1.13-1.19-1.91-2.32-1.73s-2.4.39-2.94.49Z"/>
        <path class="cls-6" d="M342.13,51.47c-1.33.44-2.72-.14-3.2-1.29l-2.55-6.04-8.29-20.7-8.16,20.38-2.74,6.36c-.48,1.15-1.87,1.73-3.2,1.29-1.34-.48-1.92-1.72-1.39-2.92l11.96-28.33c.64-1.34,1.66-2.16,3.42-2.16h.27c1.65,0,2.72.82,3.31,2.16l11.96,28.33c.54,1.2-.05,2.44-1.39,2.92Z"/>
        <path class="cls-6" d="M354.48,49.36c0,1.25-1.07,2.26-2.51,2.26s-2.46-1.01-2.46-2.26v-29.04c0-1.25,1.07-2.26,2.46-2.26s2.51,1.01,2.51,2.26v29.04Z"/>
      </g>
      <path class="cls-6" d="M151.64,28.72h-.74c-5.32,0-9.64,4.31-9.64,9.64v11.09c0,1.2.97,2.17,2.17,2.17h0c1.2,0,2.17-.97,2.17-2.17v-10.11c0-2.99,1.84-6.42,5.67-6.41s5.67,2.82,5.67,6.12v10.41c0,1.2.97,2.17,2.17,2.17h0c1.2,0,2.17-.97,2.17-2.17v-11.09c0-5.32-4.31-9.64-9.64-9.64Z"/>
    </g>
    <path class="cls-2" d="M52.62,25.83c-2.03-.49-4.13-.96-6.3-1.39-4-.8-7.84-1.42-11.49-1.89.22-.69.42-1.36.62-2.02,1.69-5.59,3.15-10.43,10.05-13.36,1.44,1.23,4.02,3.77,5.72,7.85,1.96,4.72,1.66,8.91,1.4,10.81Z"/>
    <path class="cls-3" d="M.82,20.41C2.22,12.27,7.42,7.52,11.53,4.96,16.16,2.07,21.88.5,27.55.5c.88,0,1.76.04,2.64.11,5.35.47,10.88,2.44,15.1,6.37-6.92,2.98-8.39,7.85-10.09,13.48-.2.67-.41,1.36-.63,2.06-1.54-.19-3.13-.36-4.73-.5-7.02-.6-12.95-.46-17.62.42-5.54,1.04-9.32,3.13-11.26,6.21-.55-2.7-.61-5.48-.14-8.24Z"/>
    <path class="cls-1" d="M57.79,33.85c-.07.75-.78,1.13-2.16,2.07-.71.49-.8,1.38-.93,1.88-3.01-.12-7.76-.02-13.27,1.45-6.25,1.68-8.65,3.83-14.66,5.3-3.1.76-7.82,1.5-14.02.84,15.87-7.18,19.73-15.48,22-22.56,8.84,1.1,16.3,2.88,17.89,3.27h0c.2.84,1.14,2.32,1.94,3.54.52.79,1.19,1.76,2.21,2.79.72.73,1.04,1,1,1.42Z"/>
    <path class="cls-4" d="M53.17,49.8c-1.42,2.37-7.02,1.63-13.73,2.51-7.86,1.02-12.79,3.67-13.88,4.27-1.96,1.09-4.3,2.37-6.58,4.84-4.07,4.39-5.18,9.48-5.54,11.99-.32-.85-.76-2.16-1.1-3.8-.59-2.9-.45-4.82-.41-8.57.05-4.44.06-6.66-.15-8.42-.27-2.3-.61-4.92-2.08-7.8-1.07-2.09-2.14-3.14-3.17-4.41-1.82-2.23-4.03-5.77-5.5-11.37,4.65-7.91,20.47-7.83,33.45-6.24-2.28,7.08-6.19,15.39-22.3,22.56l-.45.2.49.05c6.79,1.06,11.91.24,15.39-.76,6.67-1.9,9.75-5.13,17.38-6.42,3.95-.67,7.32-.51,9.58-.26-.62,3.05-.45,5.05-.38,6.37.03.66.06,1.29.07,1.91,0,0-.16,1.77-1.1,3.34Z"/>
  </g>
</svg>